# xmcd
#
# Track frame offsets:
#	150
#	17685
#	56011
#	69402
#	89675
#	117493
#	142565
#	166285
#	184244
#
# Disc length: 2796 seconds
#
# Revision: 1
# Processed by: cddbd v1.4PL0 Copyright (c) Steve Scherf et al.
# Submitted via: audiograbber 1.82.01
#
DISCID=760aea09
DTITLE=Erykah Badu - Live
DYEAR=2002
DGENRE=Soul
TTITLE0=Rim Shot (live)
TTITLE1=Other Side Of The Game (live)
TTITLE2=Apple Tree (live)
TTITLE3=Searching (live)
TTITLE4=Boogie Nights - All Night (live)
TTITLE5=Sometimes (live)
TTITLE6=Stay (live)
TTITLE7=Tyrone (live)
TTITLE8=Tyrone (extended version)
EXTD=
EXTT0=
EXTT1=
EXTT2=
EXTT3=
EXTT4=
EXTT5=
EXTT6=
EXTT7=
EXTT8=
PLAYORDER=
